HIERARCHY
ROOT Pelvis
{
	OFFSET 0.000000 0.000000 0.000000
	CHANNELS 6 Xposition Yposition Zposition Xrotation Yrotation Zrotation
	JOINT LeftUpLeg_virtual
	{
		OFFSET 0.000000 0.000000 0.000000
		CHANNELS 3 Xrotation Yrotation Zrotation
		JOINT LeftUpLeg
		{
			OFFSET 18.735201 -5.666702 -4.541200
			CHANNELS 3 Xrotation Yrotation Zrotation
			JOINT LeftLeg
			{
				OFFSET -0.021200 -31.938179 0.493100
				CHANNELS 3 Xrotation Yrotation Zrotation
				JOINT LeftFoot
				{
					OFFSET 0.021200 -31.938179 -4.336299
					CHANNELS 3 Xrotation Yrotation Zrotation
					JOINT LeftToeBase
					{
						OFFSET 0.943001 -26.722000 15.023500
						CHANNELS 3 Xrotation Yrotation Zrotation
						End Site
						{
							OFFSET 0 0 0
						}
					}
				}
			}
		}
	}
	JOINT RightUpLeg_virtual
	{
		OFFSET 0.000000 0.000000 0.000000
		CHANNELS 3 Xrotation Yrotation Zrotation
		JOINT RightUpLeg
		{
			OFFSET -18.735201 -5.666702 -4.541200
			CHANNELS 3 Xrotation Yrotation Zrotation
			JOINT RightLeg
			{
				OFFSET 0.018946 -31.938133 0.493100
				CHANNELS 3 Xrotation Yrotation Zrotation
				JOINT RightFoot
				{
					OFFSET -0.018946 -31.938126 -4.336299
					CHANNELS 3 Xrotation Yrotation Zrotation
					JOINT RightToeBase
					{
						OFFSET -0.943001 -26.722004 15.023500
						CHANNELS 3 Xrotation Yrotation Zrotation
						End Site
						{
							OFFSET 0 0 0
						}
					}
				}
			}
		}
	}
	JOINT Hips_virtual
	{
		OFFSET 0.000000 0.000000 0.000000
		CHANNELS 3 Xrotation Yrotation Zrotation
		JOINT Hips
		{
			OFFSET -0.000000 -0.000000 -0.000000
			CHANNELS 3 Xrotation Yrotation Zrotation
			JOINT Spine
			{
				OFFSET 0.000000 10.199997 -0.299500
				CHANNELS 3 Xrotation Yrotation Zrotation
				JOINT Spine1
				{
					OFFSET 0.000000 11.900002 -1.516600
					CHANNELS 3 Xrotation Yrotation Zrotation
					JOINT Spine2
					{
						OFFSET 0.000000 13.600006 -2.842500
						CHANNELS 3 Xrotation Yrotation Zrotation
						JOINT Neck_virtual
						{
							OFFSET 0.000000 0.000000 0.000000
							CHANNELS 3 Xrotation Yrotation Zrotation
							JOINT Neck
							{
								OFFSET 0.000000 9.624100 -2.890100
								CHANNELS 3 Xrotation Yrotation Zrotation
								JOINT Head
								{
									OFFSET 0.000000 14.068802 -1.351900
									CHANNELS 3 Xrotation Yrotation Zrotation
									End Site
									{
										OFFSET 0 0 0
									}
								}
							}
						}
						JOINT LeftShoulder_virtual
						{
							OFFSET 0.000000 0.000000 0.000000
							CHANNELS 3 Xrotation Yrotation Zrotation
							JOINT LeftShoulder
							{
								OFFSET 15.263000 10.923401 -0.547700
								CHANNELS 3 Xrotation Yrotation Zrotation
								JOINT LeftArm
								{
									OFFSET 25.438599 -2.830597 -13.032500
									CHANNELS 3 Xrotation Yrotation Zrotation
									JOINT LeftForeArm
									{
										OFFSET 29.960503 0.000000 0.000000
										CHANNELS 3 Xrotation Yrotation Zrotation
										JOINT LeftHand
										{
											OFFSET 27.849251 0.000000 0.000000
											CHANNELS 3 Xrotation Yrotation Zrotation
											End Site
											{
												OFFSET 0 0 0
											}
										}
									}
								}
							}
						}
						JOINT RightShoulder_virtual
						{
							OFFSET 0.000000 0.000000 0.000000
							CHANNELS 3 Xrotation Yrotation Zrotation
							JOINT RightShoulder
							{
								OFFSET -15.263000 10.923401 -0.547700
								CHANNELS 3 Xrotation Yrotation Zrotation
								JOINT RightArm
								{
									OFFSET -25.438599 -2.830597 -13.032500
									CHANNELS 3 Xrotation Yrotation Zrotation
									JOINT RightForeArm
									{
										OFFSET -29.960503 0.000000 0.000000
										CHANNELS 3 Xrotation Yrotation Zrotation
										JOINT RightHand
										{
											OFFSET -27.849251 0.000000 0.000000
											CHANNELS 3 Xrotation Yrotation Zrotation
											End Site
											{
												OFFSET 0 0 0
											}
										}
									}
								}
							}
						}
					}
				}
			}
		}
	}
}
MOTION
Frames: 9
Frame Time: 0.03333333
-1.290817 86.819824 3.983999 0.000000 0.000000 0.000000 -1.734052 -17.016484 -1.789527 -39.131926 15.920399 16.911082 54.575315 0.162195 8.626917 -16.006562 1.899370 -9.951013 0.000000 0.000000 0.000000 -1.734052 -17.016484 -1.789527 -30.476106 -21.588167 -16.585707 51.166771 -1.890352 -10.330473 -20.490462 -3.472707 14.590285 0.000000 0.000000 0.000000 -1.734052 -17.016484 -1.789527 0.000000 0.000000 0.000000 3.888598 2.352982 -0.517328 2.929113 2.056185 -0.138334 0.000000 0.000000 0.000000 2.894090 2.112998 -0.161224 0.457476 0.085649 2.100553 0.000000 0.000000 0.000000 2.894090 2.112998 -0.161224 1.375475 -4.867615 21.431201 -66.234277 -43.614839 -65.822028 -0.000003 -37.698369 -0.000001 0.000000 0.000000 0.000000 2.894090 2.112998 -0.161224 0.445408 -0.777911 -3.588727 -96.770653 65.301157 91.341732 -0.000010 28.227469 0.000013 0.000000 0.000000 0.000000 
-1.282761 86.824997 3.979300 0.000000 0.000000 0.000000 -1.678330 -16.976848 -1.807680 -39.238610 15.969001 16.887924 54.567706 0.126776 8.761960 -15.978305 1.902361 -9.971291 0.000000 0.000000 0.000000 -1.678330 -16.976848 -1.807680 -30.386504 -21.419654 -16.413114 51.052727 -2.132448 -10.326796 -20.429547 -3.492822 14.703405 0.000000 0.000000 0.000000 -1.678330 -16.976848 -1.807680 0.000000 0.000000 0.000000 3.853063 2.333547 -0.532969 2.899331 2.043580 -0.147449 0.000000 0.000000 0.000000 2.864489 2.099782 -0.170384 0.437092 0.090859 2.095024 0.000000 0.000000 0.000000 2.864489 2.099782 -0.170384 1.287687 -4.591924 21.372326 -66.225924 -43.832777 -66.089566 -0.000005 -37.650113 -0.000011 0.000000 0.000000 0.000000 2.864489 2.099782 -0.170384 0.432491 -0.830613 -3.627957 -97.091699 65.466202 91.848368 0.000003 28.156123 -0.000006 0.000000 0.000000 0.000000 
-1.274374 86.830017 3.970840 0.000000 0.000000 0.000000 -1.624739 -16.933200 -1.821136 -39.341777 16.018779 16.850729 54.551819 0.095463 8.906483 -15.941136 1.906338 -9.995986 0.000000 0.000000 0.000000 -1.624739 -16.933200 -1.821136 -30.301021 -21.244479 -16.243710 50.945831 -2.392563 -10.322981 -20.370093 -3.512423 14.820214 0.000000 0.000000 0.000000 -1.624739 -16.933200 -1.821136 0.000000 0.000001 0.000000 3.806677 2.305117 -0.554916 2.860568 2.025400 -0.161203 0.000000 0.000000 0.000000 2.825895 2.080957 -0.184224 0.407906 0.099305 2.087907 0.000000 0.000000 0.000000 2.825895 2.080957 -0.184224 1.196434 -4.307697 21.316489 -66.220282 -44.104710 -66.348744 0.000001 -37.562338 0.000002 0.000000 0.000000 0.000000 2.825895 2.080957 -0.184224 0.420648 -0.879266 -3.679279 -97.395725 65.635359 92.333427 0.000011 28.079222 -0.000007 0.000000 0.000000 0.000000 
-1.265945 86.835625 3.960939 0.000000 0.000000 0.000000 -1.576466 -16.885078 -1.836349 -39.440856 16.063840 16.814751 54.535796 0.059682 9.044320 -15.901408 1.910704 -10.016330 0.000000 0.000000 0.000000 -1.576466 -16.885078 -1.836349 -30.209162 -21.070698 -16.073469 50.838095 -2.658989 -10.318908 -20.310476 -3.533516 14.937414 0.000000 0.000000 0.000000 -1.576466 -16.885078 -1.836349 0.000000 -0.000001 0.000000 3.758216 2.278019 -0.572179 2.820241 2.007299 -0.173256 0.000000 0.000000 0.000000 2.785800 2.062074 -0.196305 0.380573 0.106304 2.080458 0.000000 0.000000 0.000000 2.785800 2.062074 -0.196305 1.103780 -4.021743 21.257214 -66.219176 -44.417024 -66.594706 -0.000007 -37.422244 -0.000002 0.000000 0.000000 0.000000 2.785800 2.062074 -0.196305 0.410450 -0.920575 -3.746363 -97.673638 65.806598 92.793393 0.000002 28.006410 -0.000002 0.000000 0.000000 0.000000 
-1.258823 86.843277 3.952875 0.000000 0.000000 0.000000 -1.537255 -16.837222 -1.851019 -39.518792 16.102530 16.768232 54.510271 0.035202 9.183448 -15.860220 1.916499 -10.044609 0.000000 0.000000 0.000000 -1.537255 -16.837222 -1.851019 -30.116107 -20.918141 -15.919873 50.732787 -2.906086 -10.315437 -20.255612 -3.548753 15.045167 0.000000 0.000000 0.000000 -1.537255 -16.837222 -1.851019 0.000000 -0.000002 0.000000 3.716196 2.249448 -0.592788 2.785399 1.989157 -0.186987 0.000000 0.000000 0.000000 2.751003 2.043537 -0.210102 0.355886 0.116056 2.073301 0.000000 0.000000 0.000000 2.751003 2.043537 -0.210102 1.017816 -3.758635 21.178238 -66.257794 -44.789621 -66.873959 -0.000002 -37.199997 0.000002 0.000000 0.000000 0.000000 2.751003 2.043537 -0.210102 0.404732 -0.938104 -3.847635 -97.861352 65.982318 93.157312 0.000013 27.935706 -0.000014 0.000000 0.000000 0.000000 
-1.254812 86.852837 3.947931 0.000000 0.000000 0.000000 -1.516403 -16.803582 -1.866067 -39.565783 16.149603 16.731517 54.480574 0.010550 9.309251 -15.827155 1.922703 -10.072576 0.000000 0.000000 0.000000 -1.516403 -16.803582 -1.866067 -30.020679 -20.785019 -15.784326 50.638292 -3.116190 -10.313058 -20.207915 -3.562897 15.134763 0.000000 0.000000 0.000000 -1.516403 -16.803582 -1.866067 0.000000 0.000001 0.000000 3.676496 2.229436 -0.603476 2.752402 1.975150 -0.196223 0.000000 0.000000 0.000000 2.718159 2.028926 -0.219322 0.338975 0.121656 2.067036 0.000000 0.000000 0.000000 2.718159 2.028926 -0.219322 0.945141 -3.532547 21.064093 -66.301958 -45.179102 -67.132748 0.000001 -36.920936 0.000003 0.000000 0.000000 0.000000 2.718159 2.028926 -0.219322 0.402910 -0.934675 -3.973579 -97.954359 66.150382 93.422474 0.000002 27.872749 -0.000004 0.000000 0.000000 0.000000 
-1.253919 86.863693 3.946333 0.000000 0.000000 0.000000 -1.518821 -16.791047 -1.878226 -39.572204 16.209844 16.698942 54.445022 -0.005529 9.426290 -15.804634 1.929578 -10.106011 0.000000 0.000000 0.000000 -1.518821 -16.791047 -1.878226 -29.933075 -20.678457 -15.686323 50.564683 -3.260123 -10.311941 -20.169999 -3.573851 15.199003 0.000000 0.000000 0.000000 -1.518821 -16.791047 -1.878226 0.000000 0.000001 0.000000 3.637977 2.215234 -0.608271 2.720138 1.964026 -0.202784 0.000000 0.000000 0.000000 2.686126 2.016985 -0.225833 0.325788 0.124624 2.061153 0.000000 0.000000 0.000000 2.686126 2.016985 -0.225833 0.892474 -3.360364 20.911726 -66.351811 -45.583439 -67.374263 0.000002 -36.601037 -0.000004 0.000000 0.000000 0.000000 2.686126 2.016985 -0.225833 0.404621 -0.911844 -4.116135 -97.947549 66.311725 93.575729 -0.000001 27.811134 -0.000007 0.000000 0.000000 0.000000 
-1.252459 86.874695 3.948055 0.000000 0.000000 0.000000 -1.528933 -16.790924 -1.888523 -39.564940 16.285562 16.672982 54.410052 -0.022295 9.539073 -15.791445 1.934323 -10.137259 0.000000 0.000000 0.000000 -1.528933 -16.790924 -1.888523 -29.853036 -20.584749 -15.606569 50.500400 -3.373156 -10.311871 -20.135883 -3.581276 15.252089 0.000000 0.000000 0.000000 -1.528933 -16.790924 -1.888523 0.000000 -0.000001 0.000000 3.614067 2.209839 -0.610862 2.699491 1.958624 -0.207618 0.000000 0.000000 0.000000 2.665659 2.010956 -0.230640 0.319647 0.126005 2.058714 0.000000 0.000000 0.000000 2.665659 2.010956 -0.230640 0.849069 -3.209754 20.725277 -66.391788 -45.998882 -67.583055 -0.000002 -36.275060 -0.000004 0.000000 0.000000 0.000000 2.665659 2.010956 -0.230640 0.411469 -0.861602 -4.291176 -97.835193 66.449367 93.614450 -0.000009 27.754854 0.000007 0.000000 0.000000 0.000000 
-1.248814 86.885368 3.951220 0.000000 0.000000 0.000000 -1.548787 -16.801099 -1.895766 -39.542660 16.373551 16.647939 54.375546 -0.037375 9.646950 -15.785134 1.938056 -10.165270 0.000000 0.000000 0.000000 -1.548787 -16.801099 -1.895766 -29.785017 -20.507916 -15.551890 50.450885 -3.450208 -10.312539 -20.106634 -3.586473 15.291822 0.000000 0.000000 0.000000 -1.548787 -16.801099 -1.895766 0.000000 -0.000001 0.000000 3.589736 2.207283 -0.612584 2.678028 1.954680 -0.211602 0.000000 0.000000 0.000000 2.644455 2.006183 -0.234602 0.312167 0.126673 2.056004 0.000000 0.000000 0.000000 2.644455 2.006183 -0.234602 0.815016 -3.082162 20.528309 -66.428460 -46.419086 -67.774949 0.000007 -35.955215 0.000009 0.000000 0.000000 0.000000 2.644455 2.006183 -0.234602 0.419421 -0.806304 -4.465735 -97.703575 66.581196 93.623479 0.000002 27.694727 -0.000007 0.000000 0.000000 0.000000 
